<svg width="256" height="256" viewBox="0 0 256 256" xmlns="http://www.w3.org/2000/svg">
  <rect width="256" height="256" rx="44" fill="#07090d"/>
  <line x1="148" y1="38"  x2="252" y2="26"  stroke="#00e5a0" stroke-width="1.5" opacity="0.22"/>
  <line x1="152" y1="50"  x2="252" y2="42"  stroke="#00e5a0" stroke-width="0.8" opacity="0.13"/>
  <line x1="150" y1="205" x2="252" y2="220" stroke="#0091ff" stroke-width="1.5" opacity="0.22"/>
  <line x1="155" y1="218" x2="252" y2="234" stroke="#0091ff" stroke-width="0.8" opacity="0.13"/>
  <polygon points="128,58 160,105 96,105" fill="none" stroke="#00e5a0" stroke-width="1" opacity="0.08"/>
  <polygon points="36,32 208,32 220,44 220,212 208,224 36,224 24,212 24,44" fill="#0d1018" stroke="#1a2535" stroke-width="1.5"/>
  <rect x="44" y="62" width="168" height="34" fill="#00e5a0"/>
  <rect x="99" y="96" width="58" height="100" fill="#00e5a0"/>
  <polygon points="82,62 118,62 156,130 120,130" fill="#07090d"/>
  <rect x="99" y="130" width="58" height="66" fill="#00e5a0"/>
  <rect x="44" y="196" width="168" height="10" fill="#0091ff"/>
  <rect x="44" y="206" width="80" height="4" fill="#0091ff" opacity="0.4"/>
  <rect x="24" y="24" width="14" height="4" fill="#00e5a0"/>
  <rect x="24" y="24" width="4"  height="14" fill="#00e5a0"/>
  <rect x="218" y="228" width="14" height="4" fill="#0091ff"/>
  <rect x="228" y="218" width="4"  height="14" fill="#0091ff"/>
  <line x1="212" y1="90"  x2="220" y2="90"  stroke="#00e5a0" stroke-width="2.5" opacity="0.55"/>
  <line x1="214" y1="100" x2="220" y2="100" stroke="#00e5a0" stroke-width="1.5" opacity="0.35"/>
  <line x1="216" y1="110" x2="220" y2="110" stroke="#00e5a0" stroke-width="1"   opacity="0.2"/>
</svg>